<svg class="css-a1vwta" fill="none" xmlns="http://www.w3.org/2000/svg" width="18" height="18" viewBox="0 0 24 24"><path fill-rule="evenodd" clip-rule="evenodd" d="M10.0479 14.2293C8.87792 13.0593 7.99592 11.7493 7.40992 10.4203C7.28592 10.1393 7.35892 9.81032 7.57592 9.59332L8.39492 8.77432C9.06592 8.10332 9.06592 7.15432 8.47992 6.56832L7.30592 5.39532C6.52492 4.61432 5.25892 4.61432 4.47792 5.39532L3.82592 6.04632C3.08492 6.78732 2.77592 7.85632 2.97592 8.91632C3.46992 11.5293 4.98792 14.3903 7.43692 16.8393C9.88592 19.2883 12.7469 20.8063 15.3599 21.3003C16.4199 21.5003 17.4889 21.1913 18.2299 20.4503L18.8809 19.7993C19.6619 19.0183 19.6619 17.7523 18.8809 16.9713L17.7079 15.7983C17.1219 15.2123 16.1719 15.2123 15.5869 15.7983L14.6839 16.7023C14.4669 16.9193 14.1379 16.9923 13.8569 16.8683C12.5279 16.2813 11.2179 15.3983 10.0479 14.2293Z" stroke="currentcolor" stroke-width="1.125" stroke-linecap="round" stroke-linejoin="round"/><path d="M12.9198 5.53043V3.19043" stroke="currentcolor" stroke-width="1.125" stroke-linecap="round" stroke-linejoin="round"/><path d="M17.0897 7.18053L18.7397 5.54053" stroke="currentcolor" stroke-width="1.125" stroke-linecap="round" stroke-linejoin="round"/><path d="M18.7499 11.3604H21.0799" stroke="currentcolor" stroke-width="1.125" stroke-linecap="round" stroke-linejoin="round"/></svg>