<svg width="100" height="34" viewBox="0 0 100 34" fill="none" xmlns="http://www.w3.org/2000/svg"><path d="M92.0304 0.268755H7.96733C7.66091 0.268755 7.35817 0.268755 7.05256 0.270432C6.79674 0.272108 6.54295 0.276979 6.28467 0.281078C5.72357 0.287702 5.16378 0.337225 4.61018 0.429214C4.05735 0.523207 3.52185 0.70041 3.02177 0.954829C2.52231 1.2114 2.06593 1.54479 1.6692 1.9429C1.27039 2.33989 0.937948 2.79876 0.684662 3.30186C0.430677 3.80396 0.254563 4.34201 0.162402 4.89742C0.0693653 5.45213 0.0193014 6.01323 0.0126596 6.5757C0.00490507 6.83272 0.00408616 7.0906 0 7.34766V26.7244C0.00408616 26.9847 0.00490507 27.2368 0.0126596 27.4972C0.0193034 28.0596 0.0693673 28.6207 0.162402 29.1754C0.254308 29.7311 0.430433 30.2695 0.684662 30.7718C0.937833 31.2732 1.27032 31.7303 1.6692 32.125C2.06443 32.5249 2.5211 32.8585 3.02177 33.1131C3.52184 33.3682 4.05729 33.5465 4.61018 33.6419C5.16387 33.7332 5.7236 33.7827 6.28467 33.7902C6.54295 33.7959 6.79674 33.7991 7.05256 33.7991C7.35816 33.8008 7.66093 33.8008 7.96733 33.8008H92.0304C92.3307 33.8008 92.6359 33.8008 92.9362 33.7991C93.1908 33.7991 93.452 33.7959 93.7066 33.7902C94.2666 33.7831 94.8252 33.7336 95.3778 33.6419C95.9325 33.5458 96.4698 33.3676 96.9723 33.1131C97.4725 32.8584 97.9288 32.5248 98.3237 32.125C98.7215 31.7287 99.0547 31.272 99.311 30.7718C99.5634 30.2691 99.7378 29.7308 99.8284 29.1754C99.9216 28.6206 99.9734 28.0597 99.9835 27.4972C99.9867 27.2368 99.9867 26.9847 99.9867 26.7244C99.9932 26.4198 99.9932 26.1169 99.9932 25.8074V8.2629C99.9932 7.95591 99.9932 7.65137 99.9867 7.34766C99.9867 7.0906 99.9867 6.83272 99.9835 6.57566C99.9734 6.01315 99.9216 5.45217 99.8284 4.89739C99.7376 4.3423 99.5631 3.80429 99.311 3.30183C98.7952 2.29342 97.9773 1.47258 96.9723 0.954754C96.4698 0.700956 95.9324 0.5238 95.3778 0.429139C94.8253 0.336744 94.2666 0.287204 93.7066 0.280961C93.452 0.27687 93.1908 0.271958 92.9362 0.270323C92.6359 0.268646 92.3307 0.268646 92.0304 0.268646V0.268755Z" fill="black"/><path d="M7.0595 33.0659C6.8049 33.0659 6.55645 33.0627 6.30386 33.057C5.78058 33.0501 5.25852 33.0044 4.74197 32.9202C4.26032 32.837 3.79372 32.6822 3.35757 32.4609C2.92543 32.2415 2.53128 31.9537 2.19022 31.6087C1.84422 31.2678 1.55617 30.8723 1.33746 30.438C1.11635 30.0009 0.963328 29.5324 0.883724 29.0488C0.79776 28.5291 0.751249 28.0037 0.744594 27.477C0.739296 27.3002 0.732361 26.7115 0.732361 26.7115V7.3463C0.732361 7.3463 0.739748 6.76669 0.744636 6.59641C0.751008 6.07053 0.797248 5.54589 0.882956 5.02705C0.962706 4.54211 1.11585 4.07224 1.33708 3.63371C1.55498 3.19973 1.84144 2.80398 2.18535 2.46181C2.52887 2.11638 2.92428 1.82715 3.35716 1.60467C3.79231 1.3841 4.25802 1.23039 4.73871 1.14868C5.25695 1.06365 5.78082 1.01768 6.30591 1.01115L7.05991 1.00092H92.935L93.698 1.01156C94.2183 1.01776 94.7374 1.06333 95.2509 1.14786C95.7364 1.23059 96.207 1.38537 96.6471 1.60712C97.5143 2.05549 98.22 2.76484 98.6651 3.63575C98.8828 4.07126 99.0336 4.53729 99.1123 5.01805C99.1991 5.54115 99.2476 6.0699 99.2576 6.6001C99.26 6.8375 99.26 7.09251 99.26 7.3463C99.2666 7.66067 99.2666 7.95988 99.2666 8.26155V25.8061C99.2666 26.1106 99.2666 26.4078 99.26 26.7074C99.26 26.98 99.26 27.2298 99.2567 27.4868C99.247 28.0075 99.1993 28.5268 99.1139 29.0406C99.036 29.5277 98.8838 29.9999 98.6627 30.4405C98.4424 30.8701 98.156 31.2621 97.814 31.6022C97.4727 31.9491 97.0778 32.2385 96.6447 32.4593C96.2058 32.6823 95.7359 32.8377 95.2509 32.9202C94.7344 33.0049 94.2123 33.0506 93.6889 33.057C93.4442 33.0627 93.1879 33.0659 92.9391 33.0659L92.0332 33.0676L7.0595 33.0659Z" fill="black"/><path d="M20.6998 17.2931C20.718 15.8709 21.4612 14.5573 22.669 13.8124C21.9036 12.7158 20.6676 12.0455 19.3339 12.0036C17.9307 11.8558 16.5703 12.8459 15.8553 12.8459C15.1264 12.8459 14.0255 12.0183 12.84 12.0427C11.2801 12.0933 9.86121 12.9614 9.10232 14.3295C7.48624 17.1365 8.69169 21.2618 10.2398 23.5308C11.0143 24.6418 11.9195 25.8829 13.1039 25.8389C14.263 25.7906 14.6959 25.0974 16.095 25.0974C17.481 25.0974 17.8872 25.8389 19.0957 25.8109C20.3394 25.7906 21.123 24.6949 21.8703 23.5733C22.4268 22.7817 22.8551 21.9067 23.1391 20.9809C21.662 20.3541 20.7015 18.902 20.6998 17.2931Z" fill="white"/><path d="M18.416 10.5093C19.0941 9.69261 19.4282 8.64291 19.3473 7.5831C18.3113 7.69226 17.3543 8.18901 16.667 8.97435C15.9883 9.7492 15.6445 10.7629 15.7113 11.7922C16.7612 11.8031 17.7581 11.3302 18.416 10.5093Z" fill="white"/><path fill-rule="evenodd" clip-rule="evenodd" d="M31.3966 23.0224H35.3519L36.3009 25.8361H38.0048L34.2584 15.4261H32.5178L28.7714 25.8361H30.4467L31.3966 23.0224ZM34.9437 21.7215H31.8085L33.3549 17.155H33.3981L34.9437 21.7215Z" fill="white"/><path fill-rule="evenodd" clip-rule="evenodd" d="M42.9369 25.916C44.8358 25.916 46.0941 24.4006 46.0941 22.0421C46.0941 19.6901 44.8284 18.1674 42.9084 18.1674C41.9203 18.1354 40.9948 18.651 40.4994 19.5092H40.4709V18.2468H38.9677V28.3474H40.5206V24.5881H40.5566C41.0308 25.4517 41.9554 25.9675 42.9369 25.916ZM42.5011 19.4941C43.7089 19.4941 44.5004 20.5044 44.5004 22.041C44.5004 23.5915 43.7089 24.5943 42.5011 24.5943C41.3146 24.5943 40.5165 23.5702 40.5165 22.041C40.5165 20.5256 41.3146 19.4941 42.5011 19.4941Z" fill="white"/><path fill-rule="evenodd" clip-rule="evenodd" d="M51.2629 25.9161C53.1618 25.9161 54.4201 24.4008 54.4201 22.0423C54.4201 19.6903 53.1545 18.1676 51.2343 18.1676C50.2463 18.1356 49.3207 18.6511 48.8254 19.5093H48.7968V18.247H47.2937V28.3475H48.8466V24.5883H48.8825C49.3568 25.4519 50.2814 25.9676 51.2629 25.9161ZM50.8242 19.4943C52.0319 19.4943 52.8235 20.5045 52.8235 22.0411H52.8235C52.8235 23.5917 52.0319 24.5945 50.8242 24.5945C49.6377 24.5945 48.8396 23.5704 48.8396 22.0411C48.8396 20.5258 49.6377 19.4943 50.8242 19.4943Z" fill="white"/><path d="M59.9257 22.9355C60.0408 23.9679 61.0404 24.6457 62.4064 24.6457C63.7154 24.6457 64.6571 23.9678 64.6571 23.037C64.6571 22.229 64.0891 21.7452 62.7443 21.4136L61.3995 21.0886C59.494 20.6269 58.6095 19.7329 58.6095 18.2823C58.6095 16.4861 60.1697 15.2524 62.3852 15.2524C64.5779 15.2524 66.081 16.4861 66.1316 18.2823H64.564C64.4702 17.2434 63.6142 16.6163 62.3632 16.6163C61.1122 16.6163 60.2562 17.2508 60.2562 18.1742C60.2562 18.9102 60.8029 19.3432 62.1404 19.6748L63.2837 19.9564C65.4127 20.4615 66.2973 21.3195 66.2973 22.8421C66.2973 24.7897 64.7509 26.0095 62.2914 26.0095C59.9902 26.0095 58.4364 24.8184 58.3361 22.9355L59.9257 22.9355Z" fill="white"/><path d="M69.6493 16.4528V18.2489H71.0879V19.4826H69.6493V23.6668C69.6493 24.3168 69.9373 24.6197 70.5698 24.6197C70.7405 24.6167 70.9111 24.6046 71.0806 24.5836V25.81C70.7963 25.8633 70.5073 25.8874 70.218 25.882C68.6864 25.882 68.089 25.3049 68.089 23.8329V19.4826H66.989V18.2489H68.089V16.4528H69.6493Z" fill="white"/><path fill-rule="evenodd" clip-rule="evenodd" d="M75.5097 18.1528C73.3236 18.1528 71.9216 19.6534 71.9216 22.0415C71.9216 24.436 73.3097 25.9301 75.5097 25.9301C77.7106 25.9301 79.0986 24.436 79.0986 22.0415C79.0986 19.6534 77.7032 18.1528 75.5097 18.1528ZM75.5114 19.4361C76.7697 19.4361 77.518 20.4029 77.518 22.041H77.518C77.518 23.6857 76.7697 24.6451 75.5114 24.6451C74.2531 24.6451 73.5056 23.6857 73.5056 22.041C73.5056 20.4102 74.2531 19.4361 75.5114 19.4361Z" fill="white"/><path d="M80.3798 18.2468H81.8609V19.5386H81.8969C82.1034 18.707 82.8629 18.1346 83.7166 18.1673C83.8956 18.1667 84.074 18.1862 84.2487 18.2255V19.6827C84.0227 19.6134 83.7871 19.5816 83.5509 19.5885C83.0944 19.5699 82.6525 19.7525 82.3414 20.0882C82.0303 20.4239 81.881 20.8793 81.9327 21.3347V25.8365H80.3798L80.3798 18.2468Z" fill="white"/><path fill-rule="evenodd" clip-rule="evenodd" d="M88.146 25.9301C89.8572 25.9301 91.1947 24.9845 91.4036 23.6067L89.929 23.6067C89.646 24.3109 88.9355 24.7451 88.1819 24.6742C87.6168 24.6951 87.0701 24.4714 86.6807 24.0601C86.2913 23.6488 86.0968 23.0895 86.1467 22.5245V22.4303H91.4901V21.8966C91.4901 19.5953 90.1738 18.1528 88.0807 18.1528C85.9525 18.1528 84.5791 19.6968 84.5791 22.0775C84.5791 24.4507 85.9451 25.9301 88.146 25.9301ZM89.9356 21.3442L86.1533 21.3442C86.152 20.8318 86.3548 20.3401 86.7166 19.9783C87.0784 19.6166 87.5692 19.4149 88.08 19.4179C88.5868 19.407 89.0751 19.6087 89.4273 19.9743C89.7796 20.34 89.9638 20.8365 89.9356 21.3442Z" fill="white"/><path fill-rule="evenodd" clip-rule="evenodd" d="M33.369 8.27636C32.9146 7.7949 32.2688 7.54328 31.6096 7.59074H29.8086V12.5927H31.6096C33.0948 12.5927 33.9557 11.6742 33.9557 10.0762C34.0388 9.41835 33.8235 8.75782 33.369 8.27636ZM31.5241 11.8867H30.584V8.2989H31.5241C31.9927 8.27281 32.4484 8.45819 32.7666 8.80434C33.0848 9.15048 33.2322 9.62117 33.1684 10.0877C33.2372 10.5561 33.0919 11.0307 32.7729 11.3797C32.4539 11.7287 31.9952 11.9149 31.5241 11.8867Z" fill="white"/><path fill-rule="evenodd" clip-rule="evenodd" d="M35.6651 9.01668C35.0894 9.37507 34.766 10.0299 34.8305 10.7065C34.7648 11.3838 35.0879 12.0399 35.6641 12.3991C36.2402 12.7582 36.9697 12.7582 37.5459 12.3991C38.1221 12.0399 38.4452 11.3838 38.3794 10.7065C38.4439 10.0299 38.1205 9.37507 37.5449 9.01668C36.9692 8.6583 36.2407 8.6583 35.6651 9.01668ZM36.6061 9.40756C37.2491 9.40756 37.6155 9.88606 37.6155 10.7043H37.6155C37.6155 11.5258 37.2491 12.0039 36.6061 12.0039C35.9606 12.0039 35.5975 11.5291 35.5975 10.7043C35.5975 9.88606 35.9606 9.40756 36.6061 9.40756Z" fill="white"/><path d="M43.0983 12.5894H42.328L41.5503 9.80921H41.4916L40.7172 12.5894H39.9542L38.917 8.81454H39.6702L40.3442 11.6949H40.3997L41.1733 8.81454H41.8857L42.6593 11.6949H42.7181L43.3888 8.81454H44.1314L43.0983 12.5894Z" fill="white"/><path d="M45.0009 8.81667H45.7157V9.41633H45.7712C45.9642 8.97482 46.4151 8.70474 46.8941 8.7438C47.2649 8.71583 47.6283 8.85856 47.8817 9.13169C48.1351 9.40482 48.2509 9.77871 48.1964 10.1478V12.5914H47.4538V10.3349C47.4538 9.72825 47.1911 9.42657 46.6419 9.42657C46.3903 9.41481 46.1462 9.51385 45.9735 9.69772C45.8008 9.88159 45.7168 10.1319 45.7434 10.3832V12.5915H45.0009L45.0009 8.81667Z" fill="white"/><path d="M49.3799 7.34189H50.1225V12.5903H49.3799V7.34189Z" fill="white"/><path fill-rule="evenodd" clip-rule="evenodd" d="M51.9857 9.01693C51.41 9.37532 51.0865 10.0301 51.151 10.7068C51.0853 11.3842 51.4085 12.0402 51.9847 12.3994C52.5609 12.7585 53.2904 12.7585 53.8666 12.3994C54.4428 12.0402 54.766 11.3842 54.7003 10.7068C54.7648 10.0301 54.4413 9.37532 53.8656 9.01693C53.2899 8.65854 52.5614 8.65854 51.9857 9.01693ZM52.9266 9.40787C53.5696 9.40787 53.936 9.88637 53.936 10.7046H53.936C53.936 11.5261 53.5696 12.0042 52.9266 12.0042C52.2811 12.0042 51.918 11.5294 51.918 10.7046C51.918 9.88637 52.2811 9.40787 52.9266 9.40787Z" fill="white"/><path fill-rule="evenodd" clip-rule="evenodd" d="M56.8868 10.3985C55.9916 10.4541 55.4873 10.8459 55.4873 11.5254C55.4886 11.8475 55.6256 12.1541 55.8646 12.3694C56.1035 12.5846 56.4221 12.6884 56.7415 12.6551C57.1972 12.6762 57.629 12.4498 57.8718 12.0624H57.9305V12.5929H58.6453V10.0137C58.6453 9.21633 58.1133 8.74521 57.17 8.74521C56.3164 8.74521 55.7085 9.16108 55.6326 9.80946H56.3515C56.4339 9.54258 56.7212 9.3899 57.1357 9.3899C57.6433 9.3899 57.906 9.61502 57.906 10.0137V10.3395L56.8868 10.3985ZM57.9094 10.8858V11.2014C57.8931 11.442 57.7802 11.6657 57.5966 11.8212C57.4129 11.9768 57.1742 12.0509 56.935 12.0266C56.5311 12.0266 56.2373 11.8289 56.2373 11.4892C56.2373 11.1564 56.4723 10.9796 56.9905 10.9448L57.9094 10.8858Z" fill="white"/><path fill-rule="evenodd" clip-rule="evenodd" d="M61.182 8.75578C60.2313 8.75578 59.6201 9.5114 59.6201 10.7042C59.6201 11.8998 60.2248 12.6555 61.182 12.6554C61.6673 12.6734 62.1224 12.4197 62.3636 11.9968H62.4224V12.5932H63.134V7.34482H62.3914V9.41804H62.3359C62.1116 8.99164 61.662 8.73359 61.182 8.75578ZM61.3911 11.986C60.762 11.986 60.3858 11.5042 60.3858 10.7036H60.3857C60.3857 9.90946 60.766 9.42441 61.3911 9.42441C62.0129 9.42441 62.4038 9.9201 62.4038 10.7068C62.4038 11.4973 62.017 11.986 61.3911 11.986Z" fill="white"/><path fill-rule="evenodd" clip-rule="evenodd" d="M67.0401 9.01668C66.4644 9.37507 66.141 10.0299 66.2056 10.7065C66.1398 11.3838 66.4629 12.0399 67.0391 12.3991C67.6153 12.7582 68.3447 12.7582 68.9209 12.3991C69.4971 12.0399 69.8202 11.3838 69.7545 10.7065C69.819 10.0299 69.4956 9.37507 68.9199 9.01668C68.3442 8.6583 67.6158 8.6583 67.0401 9.01668ZM67.9831 9.40756C68.6261 9.40756 68.9925 9.88606 68.9925 10.7043C68.9925 11.5258 68.6261 12.0039 67.9831 12.0039C67.3376 12.0039 66.9745 11.5291 66.9745 10.7043C66.9745 9.88606 67.3376 9.40756 67.9831 9.40756Z" fill="white"/><path d="M70.7541 8.81667H71.4689V9.41633H71.5244C71.7174 8.97482 72.1683 8.70474 72.6473 8.7438C73.0181 8.71583 73.3816 8.85856 73.6349 9.13169C73.8883 9.40482 74.0041 9.77871 73.9497 10.1478V12.5914H73.2071V10.3349C73.2071 9.72825 72.9443 9.42657 72.3951 9.42657C72.1436 9.41481 71.8995 9.51385 71.7268 9.69772C71.5541 9.88159 71.47 10.1319 71.4967 10.3832V12.5915H70.7541V8.81667Z" fill="white"/><path d="M78.1425 7.87656V8.83356H78.9577V9.46106H78.1425V11.4021C78.1425 11.7975 78.3049 11.9706 78.6745 11.9706C78.7692 11.9703 78.8637 11.9646 78.9577 11.9535V12.574C78.8244 12.5979 78.6892 12.6107 78.5538 12.6121C77.728 12.6121 77.3991 12.3206 77.3991 11.5928V9.46103H76.8018V8.83353H77.3991V7.87656H78.1425Z" fill="white"/><path d="M79.9707 7.34189H80.7068V9.42209H80.7655C80.9678 8.97672 81.4266 8.7063 81.9128 8.74588C82.2816 8.72575 82.6401 8.87162 82.8907 9.14376C83.1413 9.4159 83.2578 9.78596 83.2087 10.1531V12.5903H82.4653V10.3369C82.4653 9.73399 82.1854 9.42863 81.6607 9.42863C81.4024 9.40737 81.1479 9.5016 80.9652 9.68611C80.7825 9.87062 80.6904 10.1266 80.7133 10.3856V12.5903H79.9707L79.9707 7.34189Z" fill="white"/><path fill-rule="evenodd" clip-rule="evenodd" d="M85.9085 12.6687C86.6439 12.7487 87.3307 12.2887 87.5389 11.5766L86.8241 11.5766C86.6459 11.8972 86.2922 12.078 85.9289 12.0343C85.6487 12.0374 85.3802 11.9218 85.1894 11.7159C84.9987 11.51 84.9033 11.233 84.9268 10.9528V10.9111H87.5838V10.6511C87.5838 9.46579 86.9522 8.7482 85.9052 8.7482C85.4022 8.7439 84.9221 8.95877 84.5892 9.33714C84.2564 9.71551 84.1036 10.2202 84.1704 10.7203C84.1017 11.2191 84.2551 11.723 84.5899 12.0982C84.9246 12.4734 85.4068 12.682 85.9085 12.6687ZM86.8276 10.359H84.927C84.9237 10.0987 85.0252 9.8481 85.2087 9.66399C85.3921 9.47988 85.6419 9.37789 85.9014 9.38116C86.1574 9.37527 86.4039 9.47811 86.5803 9.66433C86.7567 9.85056 86.8465 10.1029 86.8276 10.359Z" fill="white"/></svg>