<svg class="css-a1vwta" fill="none" xmlns="http://www.w3.org/2000/svg" width="24" height="24" viewBox="0 0 24 24"><path fill-rule="evenodd" clip-rule="evenodd" d="M12 6.5C10.5063 6.5 10.3193 6.50642 9.73263 6.533C7.73521 6.62467 6.62513 7.73292 6.53346 9.73217C6.50642 10.3193 6.5 10.5063 6.5 12C6.5 13.4937 6.50642 13.6812 6.533 14.2678C6.62467 16.2653 7.73292 17.3753 9.73217 17.467C10.3193 17.4936 10.5063 17.5 12 17.5C13.4937 17.5 13.6812 17.4936 14.2678 17.467C16.2634 17.3753 17.3763 16.2671 17.4665 14.2678C17.4936 13.6812 17.5 13.4937 17.5 12C17.5 10.5063 17.4936 10.3193 17.467 9.73263C17.3772 7.73704 16.2675 6.62513 14.2683 6.53346C13.6812 6.50642 13.4937 6.5 12 6.5ZM12.0013 7.49121C13.4698 7.49121 13.6439 7.49671 14.2242 7.52329C15.7147 7.59113 16.4109 8.29834 16.4787 9.77784C16.5053 10.3576 16.5104 10.5318 16.5104 12.0003C16.5104 13.4693 16.5049 13.643 16.4787 14.2228C16.4104 15.7009 15.7161 16.4095 14.2242 16.4773C13.6439 16.5039 13.4707 16.5094 12.0013 16.5094C10.5328 16.5094 10.3586 16.5039 9.77881 16.4773C8.28465 16.409 7.5921 15.6986 7.52427 14.2223C7.49769 13.6425 7.49219 13.4688 7.49219 11.9998C7.49219 10.5313 7.49815 10.3576 7.52427 9.77738C7.59256 8.29834 8.28694 7.59067 9.77881 7.52284C10.3591 7.49671 10.5328 7.49121 12.0013 7.49121ZM9.1757 11.9999C9.1757 10.4402 10.4402 9.1757 11.9999 9.1757C13.5597 9.1757 14.8242 10.4402 14.8242 11.9999C14.8242 13.5601 13.5597 14.8247 11.9999 14.8247C10.4402 14.8247 9.1757 13.5597 9.1757 11.9999ZM12.0013 13.8327C10.9888 13.8327 10.168 13.0123 10.168 11.9993C10.168 10.9869 10.9888 10.166 12.0013 10.166C13.0138 10.166 13.8346 10.9869 13.8346 11.9993C13.8346 13.0123 13.0138 13.8327 12.0013 13.8327ZM14.2734 9.0643C14.2734 8.69992 14.5691 8.4043 14.9339 8.4043C15.2983 8.4043 15.5934 8.69992 15.5934 9.0643C15.5934 9.42867 15.2983 9.7243 14.9339 9.7243C14.5691 9.7243 14.2734 9.42867 14.2734 9.0643Z" fill="currentcolor"/></svg>