<svg width="116" height="35" viewBox="0 0 116 35" fill="none" xmlns="http://www.w3.org/2000/svg"><path d="M110.801 0.268646H4.2645C1.91097 0.268646 0.00305176 2.17656 0.00305176 4.5301V30.0988C0.00305176 32.4523 1.91097 34.3602 4.2645 34.3602H110.801C113.154 34.3602 115.062 32.4523 115.062 30.0988V4.5301C115.062 2.17656 113.154 0.268646 110.801 0.268646Z" fill="black"/><path d="M40.4183 8.99578C40.4328 9.30839 40.3836 9.62069 40.2737 9.91371C40.1638 10.2067 39.9956 10.4744 39.7791 10.7004C39.5374 10.9514 39.2455 11.1488 38.9224 11.2795C38.5993 11.4102 38.2524 11.4713 37.9041 11.4589C37.3756 11.4548 36.8602 11.2948 36.4223 10.999C35.9844 10.7032 35.6435 10.2847 35.4424 9.79601C35.2413 9.30732 35.1888 8.77015 35.2917 8.25181C35.3945 7.73346 35.648 7.25699 36.0205 6.8821C36.2653 6.6322 36.5587 6.43518 36.8827 6.30324C37.2067 6.1713 37.5543 6.10725 37.9041 6.11504C38.2644 6.11384 38.6211 6.18635 38.9524 6.32811C39.2608 6.45251 39.5353 6.6482 39.7535 6.89915L39.3018 7.35086C39.1317 7.14852 38.9169 6.98852 38.6743 6.8835C38.4317 6.77847 38.168 6.73131 37.9041 6.74574C37.6378 6.74443 37.3741 6.7969 37.1286 6.89999C36.8832 7.00308 36.6611 7.15468 36.4757 7.3457C36.2902 7.53671 36.1453 7.7632 36.0495 8.0116C35.9537 8.25999 35.909 8.52517 35.9182 8.79123C35.9126 9.18851 36.0248 9.57855 36.2407 9.91214C36.4565 10.2457 36.7663 10.5079 37.131 10.6656C37.4957 10.8234 37.8989 10.8695 38.2898 10.7984C38.6807 10.7272 39.0417 10.5418 39.3274 10.2657C39.5896 9.98149 39.7409 9.61241 39.7535 9.2259H37.9041V8.61225H40.3842C40.407 8.73883 40.4184 8.86718 40.4183 8.99578ZM44.3218 6.86506H42.0206V8.48441H44.1173V9.09806H42.0206V10.7174H44.3218V11.3481H41.3388V6.23436H44.3218V6.86506ZM47.1173 11.3481H46.4611V6.86506H45.0292V6.23436H48.5833V6.86506H47.1173V11.3481ZM51.089 11.3481V6.23436H51.7452V11.3481H51.089ZM54.6601 11.3481H54.0038V6.86506H52.572V6.23436H56.0834V6.86506H54.6601V11.3481ZM62.7398 10.6833C62.2415 11.1788 61.5674 11.4569 60.8648 11.4569C60.1621 11.4569 59.488 11.1788 58.9897 10.6833C58.5054 10.1707 58.2356 9.49219 58.2356 8.78697C58.2356 8.08175 58.5054 7.40326 58.9897 6.89063C59.2353 6.64324 59.5274 6.4469 59.8492 6.31292C60.171 6.17893 60.5162 6.10995 60.8648 6.10995C61.2133 6.10995 61.5585 6.17893 61.8803 6.31292C62.2021 6.4469 62.4942 6.64324 62.7398 6.89063C63.226 7.40228 63.4971 8.08114 63.4971 8.78697C63.4971 9.4928 63.226 10.1717 62.7398 10.6833ZM59.4755 10.2572C59.8445 10.6246 60.344 10.8309 60.8648 10.8309C61.3855 10.8309 61.885 10.6246 62.254 10.2572C62.6181 9.85576 62.8198 9.33319 62.8198 8.79123C62.8198 8.24927 62.6181 7.72671 62.254 7.32529C61.885 6.95785 61.3855 6.75155 60.8648 6.75155C60.344 6.75155 59.8445 6.95785 59.4755 7.32529C59.1114 7.72671 58.9097 8.24927 58.9097 8.79123C58.9097 9.33319 59.1114 9.85576 59.4755 10.2572ZM64.4188 11.3481V6.23436H65.22L67.7086 10.2146V6.23436H68.3649V11.3481H67.6831L65.0836 7.1804V11.3481H64.4188Z" fill="white" stroke="white" stroke-width="0.181196" stroke-miterlimit="10"/><path d="M58.0782 18.8053C57.3625 18.8087 56.6639 19.024 56.0704 19.424C55.477 19.8241 55.0154 20.391 54.7439 21.0531C54.4723 21.7153 54.403 22.4431 54.5447 23.1446C54.6864 23.8461 55.0327 24.4899 55.5399 24.9948C56.0472 25.4997 56.6926 25.843 57.3948 25.9814C58.097 26.1197 58.8244 26.047 59.4853 25.7724C60.1462 25.4977 60.7109 25.0334 61.1082 24.4381C61.5054 23.8428 61.7175 23.1432 61.7175 22.4275C61.7244 21.9485 61.6349 21.4729 61.4542 21.0292C61.2736 20.5855 61.0055 20.1826 60.6659 19.8447C60.3264 19.5067 59.9223 19.2405 59.4777 19.0619C59.0331 18.8834 58.5572 18.7961 58.0782 18.8053ZM58.0782 24.6264C57.638 24.6572 57.1988 24.5549 56.8176 24.3327C56.4364 24.1106 56.1308 23.7789 55.9407 23.3808C55.7505 22.9826 55.6844 22.5365 55.7512 22.1004C55.8179 21.6642 56.0143 21.2583 56.3148 20.9352C56.6153 20.6121 57.006 20.387 57.4362 20.2889C57.8664 20.1909 58.3161 20.2246 58.7269 20.3855C59.1377 20.5465 59.4906 20.8273 59.7397 21.1915C59.9888 21.5556 60.1226 21.9863 60.1237 22.4275C60.1374 22.7071 60.095 22.9866 59.999 23.2495C59.903 23.5124 59.7553 23.7535 59.5647 23.9584C59.3741 24.1633 59.1443 24.328 58.889 24.4428C58.6337 24.5575 58.358 24.6199 58.0782 24.6264ZM50.1434 18.8053C49.4273 18.807 48.7278 19.0209 48.1333 19.4199C47.5387 19.8189 47.0758 20.3852 46.8029 21.0473C46.5301 21.7093 46.4596 22.4373 46.6003 23.1394C46.741 23.8415 47.0867 24.4861 47.5936 24.9918C48.1005 25.4976 48.7459 25.8417 49.4483 25.9808C50.1508 26.1198 50.8786 26.0476 51.54 25.7732C52.2014 25.4988 52.7666 25.0345 53.1642 24.439C53.5619 23.8436 53.7741 23.1436 53.7741 22.4275C53.7811 21.9485 53.6916 21.4729 53.5109 21.0292C53.3303 20.5855 53.0622 20.1826 52.7226 19.8447C52.383 19.5067 51.9789 19.2405 51.5344 19.0619C51.0898 18.8834 50.6138 18.7961 50.1348 18.8053H50.1434ZM50.1434 24.6264C49.703 24.659 49.2631 24.5581 48.8808 24.3371C48.4985 24.1161 48.1917 23.7851 48.0002 23.3873C47.8086 22.9894 47.7413 22.5431 47.807 22.1065C47.8726 21.6699 48.0682 21.2631 48.3683 20.9392C48.6684 20.6152 49.059 20.3892 49.4894 20.2904C49.9197 20.1915 50.3699 20.2246 50.7812 20.3852C51.1925 20.5458 51.5459 20.8265 51.7955 21.1907C52.045 21.555 52.1791 21.986 52.1803 22.4275C52.1941 22.7071 52.1517 22.9866 52.0557 23.2495C51.9597 23.5124 51.812 23.7535 51.6214 23.9584C51.4307 24.1633 51.201 24.328 50.9457 24.4428C50.6904 24.5575 50.4147 24.6199 50.1348 24.6264H50.1434ZM40.6915 19.9218V21.4559H44.3734C44.3156 22.1785 44.0153 22.8603 43.5211 23.3906C43.1527 23.7658 42.7099 24.0598 42.2211 24.2535C41.7323 24.4473 41.2083 24.5366 40.6829 24.5156C39.5979 24.5156 38.5574 24.0846 37.7902 23.3174C37.023 22.5502 36.592 21.5096 36.592 20.4246C36.592 19.3396 37.023 18.2991 37.7902 17.5319C38.5574 16.7647 39.5979 16.3337 40.6829 16.3337C41.7209 16.3167 42.7231 16.7121 43.4699 17.4331L44.5523 16.3507C44.0482 15.8402 43.4467 15.4361 42.7835 15.1623C42.1203 14.8886 41.4089 14.7507 40.6915 14.7569C39.9338 14.7274 39.1779 14.8512 38.4692 15.1208C37.7605 15.3904 37.1135 15.8003 36.567 16.326C36.0205 16.8516 35.5858 17.4822 35.2888 18.1799C34.9918 18.8776 34.8387 19.628 34.8387 20.3863C34.8387 21.1446 34.9918 21.895 35.2888 22.5927C35.5858 23.2904 36.0205 23.9209 36.567 24.4466C37.1135 24.9722 37.7605 25.3821 38.4692 25.6518C39.1779 25.9214 39.9338 26.0452 40.6915 26.0157C41.421 26.0486 42.1491 25.925 42.8268 25.653C43.5046 25.381 44.1162 24.9671 44.6205 24.4389C45.5134 23.4579 45.9902 22.1682 45.9501 20.8423C45.9528 20.5192 45.9243 20.1967 45.8649 19.8792L40.6915 19.9218ZM79.3087 21.115C79.0865 20.4611 78.6708 19.8901 78.1168 19.4776C77.5628 19.0652 76.8966 18.8307 76.2064 18.8053C75.7402 18.8044 75.2787 18.8991 74.8506 19.0836C74.4225 19.2681 74.0367 19.5384 73.7172 19.8779C73.3977 20.2174 73.1512 20.6188 72.9929 21.0574C72.8347 21.4959 72.7681 21.9622 72.7972 22.4275C72.7869 22.9039 72.8726 23.3774 73.0494 23.8199C73.2261 24.2624 73.4903 24.6647 73.826 25.0028C74.1617 25.3409 74.5621 25.6079 75.0033 25.7877C75.4445 25.9676 75.9175 26.0567 76.3939 26.0498C76.9901 26.053 77.5777 25.9083 78.1043 25.6287C78.6308 25.349 79.0798 24.9432 79.411 24.4475L78.1752 23.5952C77.9907 23.9027 77.7296 24.157 77.4174 24.3333C77.1051 24.5096 76.7525 24.6018 76.3939 24.6009C76.0247 24.6149 75.6598 24.5176 75.3467 24.3215C75.0336 24.1254 74.7867 23.8397 74.6382 23.5014L79.4877 21.4985L79.3087 21.115ZM74.3654 22.3253C74.3482 22.0616 74.3837 21.7972 74.4699 21.5475C74.5561 21.2978 74.6912 21.0677 74.8674 20.8709C75.0436 20.6741 75.2573 20.5144 75.496 20.4011C75.7347 20.2879 75.9936 20.2235 76.2575 20.2116C76.5324 20.1935 76.8066 20.2565 77.046 20.3929C77.2854 20.5292 77.4795 20.7329 77.6041 20.9786L74.3654 22.3253ZM70.4279 25.8367H72.0216V15.1831H70.4279V25.8367ZM67.8199 19.615H67.7602C67.52 19.3464 67.2257 19.1317 66.8967 18.9848C66.5677 18.8379 66.2114 18.7622 65.8511 18.7627C64.9197 18.8078 64.0414 19.2096 63.3982 19.8848C62.7549 20.5599 62.3962 21.4567 62.3962 22.3892C62.3962 23.3217 62.7549 24.2184 63.3982 24.8936C64.0414 25.5687 64.9197 25.9705 65.8511 26.0157C66.2122 26.0217 66.5703 25.9486 66.9002 25.8013C67.23 25.6541 67.5236 25.4363 67.7602 25.1634H67.8113V25.6833C67.8113 27.0725 67.0698 27.814 65.8766 27.814C65.4792 27.8047 65.0936 27.6773 64.7688 27.4482C64.444 27.219 64.1947 26.8983 64.0527 26.527L62.6635 27.1066C62.925 27.7427 63.3706 28.2862 63.9431 28.6674C64.5156 29.0485 65.1889 29.25 65.8766 29.2458C67.7431 29.2458 69.2858 28.1464 69.2858 25.4702V19.0184H67.8199V19.615ZM65.996 24.6264C65.4462 24.578 64.9345 24.3253 64.5618 23.9183C64.1891 23.5113 63.9823 22.9794 63.9823 22.4275C63.9823 21.8756 64.1891 21.3437 64.5618 20.9367C64.9345 20.5297 65.4462 20.2771 65.996 20.2286C66.2685 20.2426 66.5356 20.311 66.7813 20.4298C67.027 20.5486 67.2465 20.7153 67.4268 20.9202C67.6071 21.1252 67.7446 21.3641 67.8311 21.623C67.9176 21.8818 67.9515 22.1554 67.9306 22.4275C67.9539 22.7008 67.9215 22.976 67.8353 23.2365C67.7492 23.4969 67.6111 23.7372 67.4295 23.9427C67.2478 24.1483 67.0264 24.3148 66.7785 24.4324C66.5307 24.5499 66.2615 24.6159 65.9874 24.6264H65.996ZM86.7748 15.1831H82.965V25.8367H84.5588V21.7968H86.7833C87.2375 21.8295 87.6936 21.7682 88.1231 21.6168C88.5526 21.4654 88.9463 21.2271 89.2797 20.9168C89.613 20.6066 89.8789 20.231 90.0607 19.8134C90.2425 19.3959 90.3363 18.9453 90.3363 18.4899C90.3363 18.0345 90.2425 17.584 90.0607 17.1665C89.8789 16.7489 89.613 16.3733 89.2797 16.0631C88.9463 15.7528 88.5526 15.5145 88.1231 15.3631C87.6936 15.2117 87.2375 15.1504 86.7833 15.1831H86.7748ZM86.7748 20.2968H84.5503V16.666H86.8089C87.2937 16.666 87.7587 16.8587 88.1016 17.2015C88.4444 17.5443 88.637 18.0093 88.637 18.4942C88.637 18.9791 88.4444 19.4441 88.1016 19.7869C87.7587 20.1298 87.2937 20.3224 86.8089 20.3224L86.7748 20.2968ZM96.6017 18.7627C96.0215 18.728 95.4437 18.8636 94.9395 19.1528C94.4353 19.442 94.0266 19.8722 93.7636 20.3906L95.1784 20.9786C95.3179 20.7215 95.5291 20.5105 95.7863 20.3713C96.0436 20.2321 96.3357 20.1707 96.6273 20.1945C96.8296 20.1709 97.0346 20.1878 97.2303 20.2442C97.426 20.3007 97.6085 20.3955 97.7672 20.5233C97.9259 20.651 98.0575 20.809 98.1545 20.9882C98.2514 21.1673 98.3117 21.364 98.3318 21.5667V21.6775C97.8199 21.4065 97.2491 21.266 96.6699 21.2684C95.1443 21.2684 93.6016 22.1207 93.6016 23.6633C93.6167 23.9923 93.6975 24.3148 93.8394 24.612C93.9813 24.9091 94.1813 25.1748 94.4276 25.3933C94.6739 25.6118 94.9616 25.7787 95.2735 25.8842C95.5854 25.9896 95.9153 26.0314 96.2437 26.0071C96.6451 26.036 97.0468 25.9562 97.4067 25.7763C97.7666 25.5963 98.0715 25.3228 98.2892 24.9844H98.3404V25.8367H99.8745V21.7372C99.8745 19.8707 98.4597 18.7882 96.6443 18.7882L96.6017 18.7627ZM96.4057 24.6009C95.8858 24.6009 95.1613 24.3367 95.1613 23.6974C95.1613 22.8451 96.0647 22.5639 96.8659 22.5639C97.3722 22.5514 97.8726 22.675 98.3148 22.9219C98.2615 23.3833 98.0432 23.8099 97.7003 24.1231C97.3573 24.4364 96.9126 24.6151 96.4483 24.6264L96.4057 24.6009ZM105.466 19.0184L103.642 23.6378H103.59L101.698 19.0184H99.9938L102.832 25.4787L101.213 29.0669H102.875L107.238 19.0184H105.466ZM91.1385 25.8367H92.7323V15.1831H91.1385V25.8367Z" fill="white"/><path d="M8.90109 6.69551C8.6233 7.02885 8.48309 7.45558 8.50903 7.88872V26.7414C8.48309 27.1745 8.6233 27.6012 8.90109 27.9346L8.96075 27.9942L19.5206 17.4429V17.1957L8.96075 6.63585L8.90109 6.69551Z" fill="url(#paint0_linear_750_153329)"/><path d="M23.0153 20.9628L19.5209 17.4428V17.1957L23.0153 13.6672L23.092 13.7098L27.2767 16.0877C28.4699 16.761 28.4699 17.869 27.2767 18.5508L23.109 20.9202L23.0153 20.9628Z" fill="url(#paint1_linear_750_153329)"/><path d="M23.1175 20.9111L19.5208 17.3145L8.90131 27.934C9.14452 28.1478 9.45478 28.2699 9.77846 28.2792C10.1022 28.2886 10.4189 28.1845 10.6741 27.9851L23.126 20.9111" fill="url(#paint2_linear_750_153329)"/><path d="M23.1174 13.7179L10.6655 6.64391C10.4103 6.44449 10.0935 6.34045 9.76986 6.34979C9.44617 6.35913 9.13591 6.48125 8.8927 6.69505L19.5208 17.3146L23.1174 13.7179Z" fill="url(#paint3_linear_750_153329)"/><path opacity="0.2" d="M23.0152 20.8351L10.6655 27.8665C10.4195 28.0505 10.1205 28.1499 9.81326 28.1499C9.50602 28.1499 9.20703 28.0505 8.96097 27.8665L8.90131 27.9262L8.96097 27.9859C9.20647 28.1711 9.50568 28.2714 9.81326 28.2714C10.1208 28.2714 10.42 28.1711 10.6655 27.9859L23.1175 20.9119L23.0152 20.8351Z" fill="black"/><path opacity="0.12" d="M8.90109 27.8147C8.6233 27.4813 8.48309 27.0546 8.50903 26.6215V26.7493C8.48309 27.1824 8.6233 27.6092 8.90109 27.9425L8.96075 27.8828L8.90109 27.8147ZM27.2765 18.4224L23.015 20.8344L23.0917 20.9111L27.2765 18.5418C27.5139 18.4302 27.7177 18.258 27.8674 18.0425C28.017 17.827 28.1072 17.5759 28.1288 17.3145C28.0808 17.552 27.9791 17.7754 27.8313 17.9675C27.6836 18.1595 27.4938 18.3152 27.2765 18.4224Z" fill="black"/><path opacity="0.25" d="M10.6649 6.76337L27.2761 16.2067C27.4934 16.314 27.6832 16.4696 27.8309 16.6617C27.9787 16.8538 28.0804 17.0772 28.1284 17.3147C28.1068 17.0533 28.0166 16.8021 27.867 16.5866C27.7173 16.3712 27.5135 16.199 27.2761 16.0874L10.6649 6.64405C9.47173 5.97074 8.50012 6.53325 8.50012 7.89692V8.02476C8.52569 6.65257 9.48026 6.09006 10.6649 6.76337Z" fill="white"/><defs><linearGradient id="paint0_linear_750_153329" x1="18.5831" y1="7.69269" x2="4.28168" y2="21.9941" gradientUnits="userSpaceOnUse"><stop stop-color="#00A0FF"/><stop offset="0.01" stop-color="#00A1FF"/><stop offset="0.26" stop-color="#00BEFF"/><stop offset="0.51" stop-color="#00D2FF"/><stop offset="0.76" stop-color="#00DFFF"/><stop offset="1" stop-color="#00E3FF"/></linearGradient><linearGradient id="paint1_linear_750_153329" x1="28.8364" y1="17.315" x2="8.21951" y2="17.315" gradientUnits="userSpaceOnUse"><stop stop-color="#FFE000"/><stop offset="0.41" stop-color="#FFBD00"/><stop offset="0.78" stop-color="#FFA500"/><stop offset="1" stop-color="#FF9C00"/></linearGradient><linearGradient id="paint2_linear_750_153329" x1="21.1658" y1="19.2747" x2="1.76764" y2="38.6643" gradientUnits="userSpaceOnUse"><stop stop-color="#FF3A44"/><stop offset="1" stop-color="#C31162"/></linearGradient><linearGradient id="paint3_linear_750_153329" x1="6.22503" y1="0.422193" x2="14.8843" y2="9.08146" gradientUnits="userSpaceOnUse"><stop stop-color="#32A071"/><stop offset="0.07" stop-color="#2DA771"/><stop offset="0.48" stop-color="#15CF74"/><stop offset="0.8" stop-color="#06E775"/><stop offset="1" stop-color="#00F076"/></linearGradient></defs></svg>